<mxfile host="app.diagrams.net" agent="Mozilla/5.0 (Windows NT 10.0; Win64; x64) AppleWebKit/537.36 (KHTML, like Gecko) Chrome/135.0.0.0 Safari/537.36" version="26.2.14">
  <diagram name="Page-1" id="orzFotgqctcHvIlXC6oz">
    <mxGraphModel dx="1042" dy="562" grid="1" gridSize="10" guides="1" tooltips="1" connect="1" arrows="1" fold="1" page="1" pageScale="1" pageWidth="827" pageHeight="1169" math="0" shadow="0">
      <root>
        <mxCell id="0" />
        <mxCell id="1" parent="0" />
        <mxCell id="Q0SYbznuGZq8GLvAOr3O-22" style="edgeStyle=orthogonalEdgeStyle;rounded=0;orthogonalLoop=1;jettySize=auto;html=1;exitX=0.5;exitY=0;exitDx=0;exitDy=0;entryX=0.5;entryY=1;entryDx=0;entryDy=0;" edge="1" parent="1" source="Q0SYbznuGZq8GLvAOr3O-1" target="Q0SYbznuGZq8GLvAOr3O-3">
          <mxGeometry relative="1" as="geometry" />
        </mxCell>
        <mxCell id="Q0SYbznuGZq8GLvAOr3O-23" value="inclusion (v-for)" style="edgeLabel;html=1;align=center;verticalAlign=middle;resizable=0;points=[];" vertex="1" connectable="0" parent="Q0SYbznuGZq8GLvAOr3O-22">
          <mxGeometry x="-0.02" y="1" relative="1" as="geometry">
            <mxPoint as="offset" />
          </mxGeometry>
        </mxCell>
        <mxCell id="Q0SYbznuGZq8GLvAOr3O-24" style="edgeStyle=orthogonalEdgeStyle;rounded=0;orthogonalLoop=1;jettySize=auto;html=1;exitX=0.5;exitY=1;exitDx=0;exitDy=0;entryX=0.5;entryY=0;entryDx=0;entryDy=0;" edge="1" parent="1" source="Q0SYbznuGZq8GLvAOr3O-1" target="Q0SYbznuGZq8GLvAOr3O-4">
          <mxGeometry relative="1" as="geometry" />
        </mxCell>
        <mxCell id="Q0SYbznuGZq8GLvAOr3O-25" value="inclusion" style="edgeLabel;html=1;align=center;verticalAlign=middle;resizable=0;points=[];" vertex="1" connectable="0" parent="Q0SYbznuGZq8GLvAOr3O-24">
          <mxGeometry x="0.02" relative="1" as="geometry">
            <mxPoint as="offset" />
          </mxGeometry>
        </mxCell>
        <mxCell id="Q0SYbznuGZq8GLvAOr3O-1" value="InventoryView" style="rounded=0;whiteSpace=wrap;html=1;" vertex="1" parent="1">
          <mxGeometry x="160" y="230" width="120" height="60" as="geometry" />
        </mxCell>
        <mxCell id="Q0SYbznuGZq8GLvAOr3O-2" value="Serveur" style="rounded=0;whiteSpace=wrap;html=1;" vertex="1" parent="1">
          <mxGeometry x="510" y="130" width="120" height="60" as="geometry" />
        </mxCell>
        <mxCell id="Q0SYbznuGZq8GLvAOr3O-26" style="edgeStyle=orthogonalEdgeStyle;rounded=0;orthogonalLoop=1;jettySize=auto;html=1;exitX=0.5;exitY=0;exitDx=0;exitDy=0;entryX=0.5;entryY=1;entryDx=0;entryDy=0;" edge="1" parent="1" source="Q0SYbznuGZq8GLvAOr3O-3" target="Q0SYbznuGZq8GLvAOr3O-5">
          <mxGeometry relative="1" as="geometry" />
        </mxCell>
        <mxCell id="Q0SYbznuGZq8GLvAOr3O-27" value="Action" style="edgeLabel;html=1;align=center;verticalAlign=middle;resizable=0;points=[];" vertex="1" connectable="0" parent="Q0SYbznuGZq8GLvAOr3O-26">
          <mxGeometry x="0.13" y="2" relative="1" as="geometry">
            <mxPoint as="offset" />
          </mxGeometry>
        </mxCell>
        <mxCell id="Q0SYbznuGZq8GLvAOr3O-3" value="InventoryItem" style="rounded=0;whiteSpace=wrap;html=1;" vertex="1" parent="1">
          <mxGeometry x="160" y="130" width="120" height="60" as="geometry" />
        </mxCell>
        <mxCell id="Q0SYbznuGZq8GLvAOr3O-4" value="AddInventoryForm" style="rounded=0;whiteSpace=wrap;html=1;" vertex="1" parent="1">
          <mxGeometry x="160" y="330" width="120" height="60" as="geometry" />
        </mxCell>
        <mxCell id="Q0SYbznuGZq8GLvAOr3O-5" value="EditInventoryForm" style="rounded=0;whiteSpace=wrap;html=1;" vertex="1" parent="1">
          <mxGeometry x="160" y="30" width="120" height="60" as="geometry" />
        </mxCell>
        <mxCell id="Q0SYbznuGZq8GLvAOr3O-6" value="DeleteInventoryButton" style="rounded=0;whiteSpace=wrap;html=1;" vertex="1" parent="1">
          <mxGeometry x="480" y="280" width="120" height="60" as="geometry" />
        </mxCell>
        <mxCell id="Q0SYbznuGZq8GLvAOr3O-11" value="" style="endArrow=classic;html=1;rounded=0;exitX=1;exitY=0.5;exitDx=0;exitDy=0;entryX=0.5;entryY=0;entryDx=0;entryDy=0;" edge="1" parent="1" source="Q0SYbznuGZq8GLvAOr3O-5" target="Q0SYbznuGZq8GLvAOr3O-2">
          <mxGeometry width="50" height="50" relative="1" as="geometry">
            <mxPoint x="390" y="320" as="sourcePoint" />
            <mxPoint x="440" y="270" as="targetPoint" />
            <Array as="points">
              <mxPoint x="570" y="60" />
            </Array>
          </mxGeometry>
        </mxCell>
        <mxCell id="Q0SYbznuGZq8GLvAOr3O-19" value="PUT/inventory/:id" style="edgeLabel;html=1;align=center;verticalAlign=middle;resizable=0;points=[];" vertex="1" connectable="0" parent="Q0SYbznuGZq8GLvAOr3O-11">
          <mxGeometry x="-0.3133" y="-3" relative="1" as="geometry">
            <mxPoint as="offset" />
          </mxGeometry>
        </mxCell>
        <mxCell id="Q0SYbznuGZq8GLvAOr3O-12" value="" style="endArrow=classic;html=1;rounded=0;exitX=1;exitY=0.5;exitDx=0;exitDy=0;entryX=0;entryY=0.5;entryDx=0;entryDy=0;" edge="1" parent="1" target="Q0SYbznuGZq8GLvAOr3O-2">
          <mxGeometry width="50" height="50" relative="1" as="geometry">
            <mxPoint x="280" y="160" as="sourcePoint" />
            <mxPoint x="430" y="240" as="targetPoint" />
            <Array as="points">
              <mxPoint x="350" y="160" />
            </Array>
          </mxGeometry>
        </mxCell>
        <mxCell id="Q0SYbznuGZq8GLvAOr3O-18" value="DELETE/inventory/:id" style="edgeLabel;html=1;align=center;verticalAlign=middle;resizable=0;points=[];" vertex="1" connectable="0" parent="Q0SYbznuGZq8GLvAOr3O-12">
          <mxGeometry x="-0.2035" relative="1" as="geometry">
            <mxPoint as="offset" />
          </mxGeometry>
        </mxCell>
        <mxCell id="Q0SYbznuGZq8GLvAOr3O-13" value="GET/inventory" style="endArrow=classic;html=1;rounded=0;exitX=1;exitY=0.5;exitDx=0;exitDy=0;entryX=0.127;entryY=1.023;entryDx=0;entryDy=0;entryPerimeter=0;" edge="1" parent="1" target="Q0SYbznuGZq8GLvAOr3O-2">
          <mxGeometry width="50" height="50" relative="1" as="geometry">
            <mxPoint x="280" y="259.5" as="sourcePoint" />
            <mxPoint x="400" y="259.5" as="targetPoint" />
            <Array as="points">
              <mxPoint x="350" y="259.5" />
              <mxPoint x="430" y="260" />
              <mxPoint x="525" y="260" />
            </Array>
          </mxGeometry>
        </mxCell>
        <mxCell id="Q0SYbznuGZq8GLvAOr3O-14" value="" style="endArrow=classic;html=1;rounded=0;exitX=1;exitY=0.75;exitDx=0;exitDy=0;entryX=0;entryY=0.5;entryDx=0;entryDy=0;" edge="1" parent="1" source="Q0SYbznuGZq8GLvAOr3O-1" target="Q0SYbznuGZq8GLvAOr3O-6">
          <mxGeometry width="50" height="50" relative="1" as="geometry">
            <mxPoint x="290" y="269.5" as="sourcePoint" />
            <mxPoint x="340" y="310" as="targetPoint" />
            <Array as="points">
              <mxPoint x="310" y="275" />
              <mxPoint x="310" y="310" />
            </Array>
          </mxGeometry>
        </mxCell>
        <mxCell id="Q0SYbznuGZq8GLvAOr3O-28" value="Inclusion" style="edgeLabel;html=1;align=center;verticalAlign=middle;resizable=0;points=[];" vertex="1" connectable="0" parent="Q0SYbznuGZq8GLvAOr3O-14">
          <mxGeometry x="0.2477" y="2" relative="1" as="geometry">
            <mxPoint as="offset" />
          </mxGeometry>
        </mxCell>
        <mxCell id="Q0SYbznuGZq8GLvAOr3O-15" value="" style="endArrow=classic;html=1;rounded=0;exitX=1;exitY=0.5;exitDx=0;exitDy=0;entryX=0.913;entryY=0.983;entryDx=0;entryDy=0;entryPerimeter=0;" edge="1" parent="1" target="Q0SYbznuGZq8GLvAOr3O-2">
          <mxGeometry width="50" height="50" relative="1" as="geometry">
            <mxPoint x="280" y="359.5" as="sourcePoint" />
            <mxPoint x="610" y="200" as="targetPoint" />
            <Array as="points">
              <mxPoint x="350" y="359.5" />
              <mxPoint x="620" y="360" />
              <mxPoint x="620" y="280" />
            </Array>
          </mxGeometry>
        </mxCell>
        <mxCell id="Q0SYbznuGZq8GLvAOr3O-20" value="POST/inventory" style="edgeLabel;html=1;align=center;verticalAlign=middle;resizable=0;points=[];" vertex="1" connectable="0" parent="Q0SYbznuGZq8GLvAOr3O-15">
          <mxGeometry x="-0.3127" y="-3" relative="1" as="geometry">
            <mxPoint as="offset" />
          </mxGeometry>
        </mxCell>
        <mxCell id="Q0SYbznuGZq8GLvAOr3O-16" value="" style="endArrow=classic;html=1;rounded=0;entryX=0.5;entryY=1;entryDx=0;entryDy=0;exitX=0.75;exitY=0;exitDx=0;exitDy=0;" edge="1" parent="1" source="Q0SYbznuGZq8GLvAOr3O-6" target="Q0SYbznuGZq8GLvAOr3O-2">
          <mxGeometry width="50" height="50" relative="1" as="geometry">
            <mxPoint x="460" y="279" as="sourcePoint" />
            <mxPoint x="410" y="170" as="targetPoint" />
            <Array as="points" />
          </mxGeometry>
        </mxCell>
        <mxCell id="Q0SYbznuGZq8GLvAOr3O-17" value="DELETE/inventory" style="edgeLabel;html=1;align=center;verticalAlign=middle;resizable=0;points=[];" vertex="1" connectable="0" parent="Q0SYbznuGZq8GLvAOr3O-16">
          <mxGeometry x="-0.2" y="-2" relative="1" as="geometry">
            <mxPoint as="offset" />
          </mxGeometry>
        </mxCell>
      </root>
    </mxGraphModel>
  </diagram>
</mxfile>
